<svg width="68" height="28" viewBox="0 0 68 28" fill="none" xmlns="http://www.w3.org/2000/svg">
<path d="M19.0739 27H1.20602V23.4551L9.63863 14.4674C10.7964 13.2023 11.6498 12.0982 12.1989 11.1553C12.7598 10.2123 13.0403 9.31717 13.0403 8.46973C13.0403 7.31196 12.7479 6.40484 12.163 5.74837C11.5782 5.07997 10.7427 4.74577 9.65654 4.74577C8.48683 4.74577 7.56181 5.15159 6.88147 5.96322C6.21307 6.76291 5.87887 7.81923 5.87887 9.13216H0.686811C0.686811 7.54471 1.06279 6.09451 1.81474 4.78158C2.57863 3.46864 3.65285 2.44217 5.0374 1.70215C6.42194 0.950197 7.9915 0.574221 9.74605 0.574221C12.4316 0.574221 14.5144 1.21875 15.9944 2.50781C17.4864 3.79688 18.2324 5.61708 18.2324 7.96843C18.2324 9.25749 17.8982 10.5704 17.2298 11.9072C16.5614 13.244 15.4155 14.8017 13.7923 16.5801L7.86617 22.8285H19.0739V27ZM43.4407 23.7057C42.4739 24.8635 41.1073 25.7646 39.3408 26.4092C37.5743 27.0418 35.6168 27.3581 33.4684 27.3581C31.2125 27.3581 29.2312 26.8687 27.5244 25.89C25.8295 24.8993 24.5166 23.467 23.5856 21.5931C22.6665 19.7192 22.1951 17.517 22.1712 14.9867V13.2142C22.1712 10.6122 22.6068 8.36231 23.4781 6.46452C24.3614 4.5548 25.6266 3.09863 27.2737 2.09603C28.9328 1.08149 30.8724 0.574221 33.0924 0.574221C36.1838 0.574221 38.6008 1.31424 40.3434 2.79427C42.086 4.26237 43.1184 6.40484 43.4407 9.22168H38.2128C37.9741 7.72971 37.443 6.63759 36.6194 5.94531C35.8078 5.25304 34.6858 4.9069 33.2535 4.9069C31.4274 4.9069 30.0369 5.59321 29.082 6.96582C28.1271 8.33843 27.6437 10.3794 27.6318 13.0889V14.7539C27.6318 17.4872 28.151 19.5521 29.1894 20.9486C30.2278 22.3451 31.7496 23.0433 33.7548 23.0433C35.772 23.0433 37.2102 22.6136 38.0696 21.7542V17.2604H33.1819V13.3037H43.4407V23.7057ZM47.8092 27V0.932293H56.9401C60.103 0.932293 62.5021 1.54102 64.1373 2.75847C65.7725 3.96398 66.5901 5.73644 66.5901 8.07585C66.5901 9.35297 66.2619 10.4809 65.6054 11.4596C64.949 12.4264 64.0359 13.1366 62.8662 13.5902C64.203 13.9244 65.2533 14.5987 66.0172 15.6133C66.793 16.6278 67.1809 17.8691 67.1809 19.3372C67.1809 21.8438 66.3812 23.7415 64.7819 25.0306C63.1825 26.3197 60.9027 26.9761 57.9427 27H47.8092ZM53.1803 15.6491V22.6852H57.7815C59.0467 22.6852 60.0314 22.3868 60.7356 21.79C61.4518 21.1813 61.8099 20.3458 61.8099 19.2835C61.8099 16.8964 60.5745 15.6849 58.1038 15.6491H53.1803ZM53.1803 11.8535H57.1549C59.8643 11.8058 61.219 10.7256 61.219 8.61296C61.219 7.43132 60.8729 6.58388 60.1806 6.07064C59.5003 5.54547 58.4201 5.28288 56.9401 5.28288H53.1803V11.8535Z" fill="white"/>
</svg>